ply
format ascii 1.0
element vertex 185
property float x
property float y
property float z
property uchar red 
property uchar green 
property uchar blue 
element face 366
property list uchar int vertex_index
end_header
-1 -3 -0 255 255 255
-3 -10 -0 255 255 255
2 5 -0 255 255 255
-7 -1 -0 255 255 255
-6 -8 -0 255 255 255
-0 -9 -0 255 255 255
2 -4 -0 255 255 255
-1 -8 3 255 255 255
1 -4 5 255 255 255
2 6 3 255 255 255
-2 6 3 255 255 255
-2 5 -0 255 255 255
-4 -7 -0 255 255 255
-4 -7 3 255 255 255
-1 -8 -0 255 255 255
-4 -3 5 255 255 255
-7 -5 11 255 255 255
-6 5 14 255 255 255
2 10 8 255 255 255
2 12 18 255 255 255
8 7 36 255 255 255
8 15 14 255 255 255
2 8 27 255 255 255
-3 -2 15 255 255 255
4 22 5 255 255 255
7 24 -0 255 255 255
5 26 9 255 255 255
7 30 8 255 255 255
3 15 6 255 255 255
8 1 55 255 255 255
3 -7 43 255 255 255
2 -6 46 255 255 255
4 -7 46 255 255 255
4 -7 43 255 255 255
8 -13 34 255 255 255
5 -10 31 255 255 255
6 16 -0 255 255 255
2 -9 24 255 255 255
-5 -1 23 255 255 255
-4 -1 28 255 255 255
0 -0 33 255 255 255
0 -4 28 255 255 255
2 -8 17 255 255 255
7 31 17 255 255 255
8 28 16 255 255 255
8 26 20 255 255 255
8 32 17 255 255 255
5 31 20 255 255 255
6 31 24 255 255 255
6 28 19 255 255 255
7 29 27 255 255 255
4 -11 22 255 255 255
5 -10 21 255 255 255
3 -10 20 255 255 255
7 -10 21 255 255 255
-1 -1 18 255 255 255
-2 7 18 255 255 255
0 7 43 255 255 255
-3 2 39 255 255 255
3 6 35 255 255 255
1 1 51 255 255 255
6 9 -0 255 255 255
3 1 -0 255 255 255
3 6 5 255 255 255
7 32 30 255 255 255
8 -10 25 255 255 255
5 -9 22 255 255 255
8 -10 21 255 255 255
5 -9 19 255 255 255
8 -7 7 255 255 255
1 -5 9 255 255 255
8 -1 -0 255 255 255
7 -10 25 255 255 255
8 -8 28 255 255 255
8 -10 52 255 255 255
1 -6 50 255 255 255
2 -9 42 255 255 255
-2 -6 38 255 255 255
-1 -7 42 255 255 255
3 -15 36 255 255 255
6 -7 28 255 255 255
4 -15 41 255 255 255
4 -12 33 255 255 255
4 -9 47 255 255 255
4 -10 43 255 255 255
2 -7 48 255 255 255
6 -9 18 255 255 255
-0 -8 20 255 255 255
3 -10 18 255 255 255
3 -8 24 255 255 255
8 24 11 255 255 255
7 29 17 255 255 255
18 -3 -0 255 255 255
21 -7 -0 255 255 255
15 -4 -0 255 255 255
17 -9 -0 255 255 255
18 -8 -0 255 255 255
14 5 -0 255 255 255
18 5 -0 255 255 255
23 -1 -0 255 255 255
23 -8 -0 255 255 255
20 -10 -0 255 255 255
18 -8 3 255 255 255
21 -3 5 255 255 255
19 7 18 255 255 255
18 6 3 255 255 255
23 5 14 255 255 255
19 -2 15 255 255 255
23 -5 11 255 255 255
14 12 18 255 255 255
14 15 6 255 255 255
8 24 -0 255 255 255
10 24 -0 255 255 255
13 22 5 255 255 255
8 20 8 255 255 255
10 30 8 255 255 255
8 30 8 255 255 255
11 9 -0 255 255 255
16 7 43 255 255 255
14 6 35 255 255 255
8 8 45 255 255 255
13 -7 46 255 255 255
12 -15 41 255 255 255
8 -16 42 255 255 255
13 -12 33 255 255 255
8 -16 36 255 255 255
13 -15 36 255 255 255
11 -10 31 255 255 255
8 21 -0 255 255 255
10 16 -0 255 255 255
15 8 27 255 255 255
20 -1 28 255 255 255
8 -10 17 255 255 255
14 -8 17 255 255 255
22 -1 23 255 255 255
12 31 20 255 255 255
10 31 17 255 255 255
11 28 19 255 255 255
9 32 30 255 255 255
8 34 22 255 255 255
12 -10 21 255 255 255
12 -11 22 255 255 255
14 -9 24 255 255 255
12 -9 19 255 255 255
10 -10 25 255 255 255
10 -10 21 255 255 255
15 1 51 255 255 255
15 -6 50 255 255 255
21 -7 3 255 255 255
16 -4 5 255 255 255
8 8 -0 255 255 255
13 1 -0 255 255 255
15 10 8 255 255 255
18 -1 18 255 255 255
11 31 24 255 255 255
10 -9 18 255 255 255
8 -10 19 255 255 255
8 -10 22 255 255 255
11 -9 22 255 255 255
13 6 5 255 255 255
15 -5 9 255 255 255
15 6 3 255 255 255
16 -4 28 255 255 255
11 -7 28 255 255 255
15 -7 48 255 255 255
20 2 39 255 255 255
19 -6 38 255 255 255
8 -13 44 255 255 255
18 -7 42 255 255 255
14 -6 46 255 255 255
12 -9 47 255 255 255
13 -7 43 255 255 255
12 -10 43 255 255 255
14 -7 43 255 255 255
14 -9 42 255 255 255
16 -0 33 255 255 255
8 29 27 255 255 255
8 32 30 255 255 255
10 29 27 255 255 255
14 -10 18 255 255 255
17 -8 20 255 255 255
14 -10 20 255 255 255
13 -8 24 255 255 255
10 29 17 255 255 255
12 26 9 255 255 255
3 12 4 0
3 3 0 4
3 1 12 0
3 14 1 0
3 5 14 6
3 0 6 14
3 3 11 0
3 6 0 2
3 2 0 11
3 11 3 10
3 15 10 3
3 3 4 15
3 13 15 4
3 5 6 7
3 8 7 6
3 6 2 8
3 9 8 2
3 2 11 9
3 10 9 11
3 4 12 13
3 12 1 13
3 1 14 7
3 14 5 7
3 13 1 7
3 10 15 17
3 16 17 15
3 16 15 70
3 8 70 15
3 17 16 56
3 23 56 16
3 18 17 56
3 10 17 9
3 18 9 17
3 18 56 19
3 22 19 56
3 19 22 21
3 20 21 22
3 16 70 23
3 19 21 18
3 28 18 21
3 28 21 24
3 114 24 21
3 28 24 36
3 25 36 24
3 36 25 128
3 111 128 25
3 24 114 26
3 90 26 114
3 24 26 25
3 27 25 26
3 25 27 111
3 116 111 27
3 27 26 43
3 91 43 26
3 27 43 116
3 46 116 43
3 18 28 61
3 36 61 28
3 20 22 59
3 20 59 120
3 57 120 59
3 120 57 29
3 60 29 57
3 29 60 74
3 75 74 60
3 30 33 31
3 32 31 33
3 123 81 125
3 79 125 81
3 125 79 34
3 82 34 79
3 73 34 35
3 82 35 34
3 61 36 150
3 128 150 36
3 59 22 39
3 38 39 22
3 39 38 37
3 87 37 38
3 59 39 40
3 41 40 39
3 39 37 41
3 89 41 37
3 23 70 42
3 42 70 132
3 69 132 70
3 87 38 42
3 55 42 38
3 43 91 47
3 49 47 91
3 91 44 49
3 45 49 44
3 46 43 139
3 47 139 43
3 47 49 48
3 50 48 49
3 49 45 50
3 47 48 139
3 64 139 48
3 37 87 51
3 52 51 53
3 51 87 53
3 53 68 52
3 54 52 68
3 37 51 72
3 66 51 54
3 52 54 51
3 38 22 55
3 22 56 55
3 23 55 56
3 78 75 58
3 60 58 75
3 57 59 58
3 40 58 59
3 60 57 58
3 7 8 13
3 15 13 8
3 61 150 62
3 71 62 150
3 18 61 63
3 9 18 63
3 55 23 42
3 64 48 50
3 86 42 132
3 68 86 156
3 132 156 86
3 72 66 65
3 157 65 66
3 66 54 157
3 67 157 54
3 54 68 67
3 156 67 68
3 66 72 51
3 8 9 70
3 63 70 9
3 63 61 70
3 62 70 61
3 69 70 71
3 62 71 70
3 41 89 40
3 80 40 89
3 89 72 80
3 73 80 72
3 72 65 73
3 74 75 83
3 85 83 75
3 78 76 75
3 85 75 76
3 74 83 167
3 84 167 83
3 77 78 58
3 79 81 77
3 78 77 81
3 58 40 77
3 35 40 80
3 123 167 81
3 84 81 167
3 84 76 81
3 78 81 76
3 82 79 77
3 83 85 32
3 31 32 85
3 84 83 33
3 32 33 83
3 76 84 30
3 33 30 84
3 85 76 31
3 30 31 76
3 80 73 35
3 77 40 82
3 35 82 40
3 64 50 177
3 176 177 50
3 176 50 45
3 139 64 177
3 87 42 88
3 88 42 86
3 53 86 68
3 86 53 88
3 87 88 53
3 72 89 37
3 90 44 26
3 91 26 44
3 99 100 92
3 93 92 100
3 92 93 101
3 92 101 96
3 92 96 94
3 95 94 96
3 92 98 99
3 97 92 94
3 98 92 97
3 103 99 105
3 98 105 99
3 148 100 103
3 99 103 100
3 149 94 102
3 95 102 94
3 161 97 149
3 94 149 97
3 105 98 161
3 97 161 98
3 148 93 100
3 148 101 93
3 102 96 101
3 102 95 96
3 102 101 148
3 108 103 106
3 105 106 103
3 149 103 160
3 108 160 103
3 107 108 104
3 106 104 108
3 104 106 152
3 152 106 161
3 105 161 106
3 130 104 109
3 152 109 104
3 20 130 21
3 109 21 130
3 107 160 108
3 110 21 152
3 109 152 21
3 114 21 113
3 110 113 21
3 112 113 129
3 110 129 113
3 111 112 128
3 129 128 112
3 90 114 184
3 113 184 114
3 115 184 112
3 113 112 184
3 116 115 111
3 112 111 115
3 183 184 136
3 115 136 184
3 46 136 116
3 115 116 136
3 129 110 117
3 152 117 110
3 119 130 20
3 118 119 120
3 20 120 119
3 146 118 29
3 120 29 118
3 147 146 74
3 29 74 146
3 121 171 169
3 173 169 171
3 126 122 125
3 123 125 122
3 124 126 34
3 125 34 126
3 124 34 127
3 73 127 34
3 128 129 150
3 117 150 129
3 134 130 131
3 119 131 130
3 180 134 142
3 131 142 134
3 162 131 175
3 119 175 131
3 182 142 162
3 131 162 142
3 133 160 107
3 69 160 132
3 133 132 160
3 153 134 133
3 180 133 134
3 137 183 135
3 136 135 183
3 45 44 137
3 183 137 44
3 135 136 139
3 46 139 136
3 178 137 154
3 135 154 137
3 178 45 137
3 138 154 139
3 135 139 154
3 140 181 141
3 181 180 141
3 141 180 142
3 145 143 140
3 181 140 143
3 144 141 142
3 140 141 145
3 158 145 141
3 153 130 134
3 107 104 153
3 130 153 104
3 146 147 165
3 168 165 147
3 175 119 165
3 118 165 119
3 165 118 146
3 103 149 148
3 102 148 149
3 71 150 151
3 117 151 150
3 159 117 152
3 159 152 161
3 133 107 153
3 178 154 138
3 132 133 155
3 132 155 156
3 143 156 155
3 157 158 65
3 144 65 158
3 67 145 157
3 158 157 145
3 156 143 67
3 145 67 143
3 141 144 158
3 159 161 160
3 149 160 161
3 151 117 160
3 159 160 117
3 151 160 71
3 69 71 160
3 163 182 175
3 162 175 182
3 73 144 163
3 182 163 144
3 73 65 144
3 164 147 170
3 74 170 147
3 164 174 147
3 168 147 174
3 172 170 167
3 74 167 170
3 165 168 166
3 168 122 166
3 126 166 122
3 166 175 165
3 163 175 127
3 172 167 122
3 123 122 167
3 168 174 122
3 172 122 174
3 166 126 124
3 169 164 121
3 170 121 164
3 121 170 171
3 172 171 170
3 171 172 173
3 174 173 172
3 173 174 169
3 164 169 174
3 127 73 163
3 127 175 124
3 166 124 175
3 176 178 177
3 138 177 178
3 45 178 176
3 177 138 139
3 179 133 180
3 155 133 179
3 143 155 181
3 180 181 179
3 155 179 181
3 142 182 144
3 183 44 184
3 90 184 44
