ply
format ascii 1.0
element vertex 20
property float x
property float y
property float z
property uchar red 
property uchar green 
property uchar blue 
element face 36
property list uchar int vertex_index
end_header
0 0 0 255 255 255
1 0 0 255 255 255
2 0 0 255 255 255
0 1 0 255 255 255
1 1 0 255 255 255
2 1 0 255 255 255
0 2 0 255 255 255
1 2 0 255 255 255
0 0 1 255 255 255
1 0 1 255 255 255
2 0 1 255 255 255
0 1 1 255 255 255
1 1 1 255 255 255
2 1 1 255 255 255
0 2 1 255 255 255
1 2 1 255 255 255
0 1 3 255 255 255
1 1 3 255 255 255
0 2 3 255 255 255
1 2 3 255 255 255
3 0 3 4
3 0 4 1
3 1 4 5
3 1 5 2
3 3 6 7
3 3 7 4
3 8 9 12
3 8 12 11
3 9 10 13
3 9 13 12
3 16 17 19
3 16 19 18
3 0 8 11
3 0 11 3
3 3 11 14
3 3 14 6
3 11 16 18
3 11 18 14
3 15 12 4
3 4 7 15
3 17 12 19
3 15 19 12
3 13 10 2
3 2 5 13
3 0 1 9
3 0 9 8
3 1 2 10
3 1 10 9
3 11 12 17
3 11 17 16
3 13 5 4
3 12 13 4
3 7 6 15
3 14 15 6
3 14 19 15
3 18 19 14
