ply
format ascii 1.0
element vertex 92
property float x
property float y
property float z
property uchar red 
property uchar green 
property uchar blue 
element face 180
property list uchar int vertex_index
end_header
-1 5 -1 255 255 255
1 5 -2 255 255 255
-1 4 -2 255 255 255
-1 1 -2 255 255 255
-1 0 -2 255 255 255
1 4 -2 255 255 255
2 4 -2 255 255 255
3 5 -2 255 255 255
2 3 -2 255 255 255
1 3 -2 255 255 255
0 1 -2 255 255 255
0 2 -2 255 255 255
-2 4 -1 255 255 255
-1 3 0 255 255 255
-2 3 0 255 255 255
2 3 -1 255 255 255
1 2 -1 255 255 255
1 2 -2 255 255 255
0 2 -1 255 255 255
1 4 -1 255 255 255
0 1 -1 255 255 255
-1 1 -1 255 255 255
-1 4 3 255 255 255
-1 5 2 255 255 255
-2 4 2 255 255 255
0 5 2 255 255 255
0 5 1 255 255 255
0 4 2 255 255 255
-1 4 2 255 255 255
0 4 1 255 255 255
-1 4 1 255 255 255
-1 3 2 255 255 255
-2 3 1 255 255 255
0 3 1 255 255 255
-1 2 1 255 255 255
1 5 1 255 255 255
1 4 1 255 255 255
0 4 0 255 255 255
-1 3 1 255 255 255
-2 2 1 255 255 255
2 5 0 255 255 255
2 4 0 255 255 255
1 3 -1 255 255 255
0 2 0 255 255 255
0 3 -1 255 255 255
-1 2 -1 255 255 255
-1 2 0 255 255 255
-1 1 0 255 255 255
-2 1 0 255 255 255
1 4 0 255 255 255
0 3 0 255 255 255
1 3 0 255 255 255
-1 0 -1 255 255 255
-1 5 -2 255 255 255
-2 5 -2 255 255 255
-2 5 3 255 255 255
-1 5 3 255 255 255
1 5 -1 255 255 255
1 5 0 255 255 255
2 5 -1 255 255 255
3 5 -1 255 255 255
3 4 -2 255 255 255
-2 0 -1 255 255 255
-2 3 -1 255 255 255
-2 0 -2 255 255 255
-2 2 0 255 255 255
-2 1 -1 255 255 255
-2 4 3 255 255 255
-2 4 0 255 255 255
-2 3 2 255 255 255
2 4 -1 255 255 255
3 4 -1 255 255 255
-2 5 2 255 255 255
-2 5 1 255 255 255
-2 5 0 255 255 255
-2 5 -1 255 255 255
-1 5 1 255 255 255
-1 5 0 255 255 255
0 5 0 255 255 255
0 5 -1 255 255 255
0 5 -2 255 255 255
2 5 -2 255 255 255
0 4 -2 255 255 255
0 3 -2 255 255 255
-1 3 -2 255 255 255
-2 3 -2 255 255 255
-2 4 -2 255 255 255
-2 2 -2 255 255 255
-2 1 -2 255 255 255
-1 2 -2 255 255 255
-2 2 -1 255 255 255
-2 4 1 255 255 255
3 23 72 55
3 73 74 68
3 73 68 91
3 91 68 14
3 91 14 32
3 72 91 24
3 24 91 32
3 55 72 24
3 72 73 91
3 68 63 14
3 74 75 12
3 74 12 68
3 75 54 86
3 75 86 12
3 12 86 85
3 12 85 63
3 14 63 90
3 14 90 65
3 68 12 63
3 63 85 87
3 63 87 90
3 90 87 88
3 90 88 66
3 65 90 66
3 66 88 64
3 57 1 79
3 80 53 0
3 80 0 79
3 53 80 2
3 1 80 79
3 53 2 86
3 53 86 54
3 83 11 89
3 83 89 84
3 84 89 87
3 84 87 85
3 11 3 89
3 89 3 88
3 89 88 87
3 3 64 88
3 2 85 86
3 5 9 83
3 9 11 83
3 82 5 83
3 64 3 4
3 6 8 9
3 81 6 5
3 81 7 6
3 81 5 1
3 6 7 61
3 6 9 5
3 3 11 10
3 9 17 11
3 9 8 42
3 42 8 15
3 17 9 16
3 1 5 82
3 82 80 1
3 80 82 2
3 16 9 42
3 11 17 18
3 18 17 16
3 10 11 20
3 20 11 18
3 20 18 21
3 21 18 45
3 15 70 42
3 42 70 19
3 20 21 10
3 10 21 3
3 56 22 23
3 23 22 28
3 22 67 28
3 28 67 24
3 55 67 56
3 56 67 22
3 82 83 84
3 82 84 2
3 84 85 2
3 24 69 28
3 28 69 31
3 23 28 25
3 25 28 27
3 25 27 26
3 26 27 29
3 27 28 29
3 29 28 30
3 28 31 30
3 30 31 38
3 31 69 38
3 38 69 32
3 30 38 29
3 29 38 33
3 32 39 38
3 38 39 34
3 35 36 58
3 58 36 49
3 36 29 49
3 49 29 37
3 29 33 37
3 37 33 50
3 33 38 50
3 50 38 13
3 38 34 13
3 13 34 46
3 34 39 46
3 46 39 65
3 26 29 35
3 35 29 36
3 13 46 50
3 50 46 43
3 65 48 46
3 46 48 47
3 58 49 40
3 40 49 41
3 40 41 59
3 59 41 70
3 41 49 70
3 70 49 19
3 49 51 19
3 19 51 42
3 51 50 42
3 42 50 44
3 50 43 44
3 44 43 18
3 43 46 18
3 18 46 45
3 46 47 45
3 45 47 21
3 47 48 21
3 21 48 66
3 37 50 49
3 49 50 51
3 16 42 18
3 18 42 44
3 66 62 21
3 21 62 52
3 53 54 75
3 23 76 72
3 72 76 73
3 26 23 25
3 26 78 76
3 23 26 76
3 26 35 58
3 23 55 56
3 58 78 26
3 57 58 59
3 58 57 78
3 78 57 79
3 76 78 77
3 77 78 79
3 79 0 77
3 59 58 40
3 59 81 57
3 59 7 81
3 59 60 7
3 81 1 57
3 60 71 7
3 7 71 61
3 71 70 61
3 61 70 6
3 8 6 15
3 15 6 70
3 21 52 3
3 3 52 4
3 52 62 4
3 4 62 64
3 77 0 74
3 74 0 75
3 0 53 75
3 76 77 73
3 77 74 73
3 64 62 66
3 65 66 48
3 39 32 65
3 65 32 14
3 55 24 67
3 32 69 24
3 59 70 60
3 60 70 71
